<?xml version="1.0" encoding="UTF-8"?>
<svg viewBox="0 0 37 36" version="1.1" xmlns="http://www.w3.org/2000/svg" xmlns:xlink="http://www.w3.org/1999/xlink">
  <g id="JR" fill-rule="evenodd">
    <path d="M11.5299999,0.172 C10.2339999,0.172 9.3699999,1.108 9.3699999,2.296 C9.3699999,3.52 10.2339999,4.42 11.5299999,4.42 C12.8259999,4.42 13.7259999,3.52 13.7259999,2.296 C13.7259999,1.108 12.8259999,0.172 11.5299999,0.172 Z" id="Dot"></path>
    <path d="M12.6731383,27.4000435 C11.5872979,32.0698934 7.36372527,34.4757822 0.83932178,35.5998349 L0.333171707,33.2633818 C5.97312967,32.3141978 9.95002311,30.1602802 9.95002311,25.0127821 L9.95002311,11.0305711 L1.99623623,11.0305711 L1.99623623,8.65761105 L12.95077,8.65761105 L28.6387039,8.65886646 L29.0002396,12.3460814 C30.1210005,9.60805049 32.217908,8.22078152 34.4955833,8.22078152 C35.4355763,8.22078152 36.0863407,8.29379567 36.9901801,8.51283814 L36.4478764,11.5064186 C35.6163442,11.2873761 35.0378869,11.1778549 34.2425083,11.1778549 C31.6756043,11.1778549 29.6871576,13.6968433 29.0363932,16.36186 L29.0363932,24.9905764 L34.3871226,24.9905764 L34.3871226,27.4000435 L12.6731383,27.4000435 Z M13,11 L26,11 L26,25 L13,25 L13,11 Z"></path>
  </g>
</svg>
